<?xml version="1.0" encoding="iso-8859-1"?>
<!-- Generator: Adobe Illustrator 19.1.0, SVG Export Plug-In . SVG Version: 6.00 Build 0)  -->
<svg version="1.1" id="Capa_1" xmlns="http://www.w3.org/2000/svg" xmlns:xlink="http://www.w3.org/1999/xlink" x="0px" y="0px"
	 viewBox="0 0 289.135 289.135" style="enable-background:new 0 0 289.135 289.135;" xml:space="preserve">
<g>
	<g>
		<path d="M225.755,0H63.38C51.912,0,42.254,9.658,42.254,21.127v246.881c0,11.469,9.658,21.127,21.127,21.127h162.374
			c11.469,0,21.127-9.658,21.127-21.127V21.127C246.881,9.658,237.223,0,225.755,0z M234.809,268.612
			c0,4.829-4.225,9.054-9.054,9.054H63.38c-4.829,0-9.054-4.225-9.054-9.054V21.73c0-4.829,4.225-9.054,9.054-9.054h162.374
			c4.829,0,9.054,4.225,9.054,9.054V268.612z"/>
		<path d="M147.887,79.678c-2.414-1.811-5.433-1.811-7.847,0c-9.658,7.847-56.137,47.686-56.137,71.227
			c0,19.919,16.298,36.217,36.217,36.217c3.622,0,6.64-0.604,9.658-1.207l-8.451,17.505c-0.604,1.811-0.604,4.225,0.604,6.036
			s3.018,3.018,4.829,3.018h34.406c1.811,0,4.225-1.207,4.829-3.018c1.207-1.811,1.207-3.622,0.604-6.036l-8.451-17.505
			c3.018,0.604,6.64,1.207,9.658,1.207c19.92,0,36.217-16.298,36.217-36.217C204.628,125.553,153.924,83.903,147.887,79.678z
			 M136.419,199.195l7.847-16.298l7.847,16.298H136.419z M168.41,174.447c-7.847,0-14.487-3.622-19.316-9.658
			c-0.604-1.207-1.811-1.811-3.018-1.811l0,0c-0.604,0-1.207-0.604-1.811-0.604s-1.207,0-1.811,0.604l0,0
			c-1.207,0.604-2.414,1.207-3.018,1.811c-4.829,6.036-11.469,9.658-19.316,9.658c-13.28,0-24.145-10.865-24.145-24.145
			c0-12.676,28.37-41.046,48.29-58.551c19.92,16.901,48.29,44.668,48.29,58.551C192.555,163.582,181.69,174.447,168.41,174.447z"/>
	</g>
</g>
<g>
</g>
<g>
</g>
<g>
</g>
<g>
</g>
<g>
</g>
<g>
</g>
<g>
</g>
<g>
</g>
<g>
</g>
<g>
</g>
<g>
</g>
<g>
</g>
<g>
</g>
<g>
</g>
<g>
</g>
</svg>
